<?xml version="1.0" standalone="no"?>
<!DOCTYPE svg PUBLIC "-//W3C//DTD SVG 20010904//EN"
 "http://www.w3.org/TR/2001/REC-SVG-20010904/DTD/svg10.dtd">
<svg version="1.0" xmlns="http://www.w3.org/2000/svg"
 width="499.000000pt" height="499.000000pt" viewBox="0 0 499.000000 499.000000"
 preserveAspectRatio="xMidYMid meet">
<metadata>
Created by potrace 1.11, written by Peter Selinger 2001-2013
</metadata>
<g transform="translate(0.000000,499.000000) scale(0.100000,-0.100000)"
fill="#000000" stroke="none">
<path d="M2180 4130 c-152 -16 -182 -20 -248 -30 -940 -146 -1675 -638 -1876
-1254 -56 -169 -71 -383 -39 -551 78 -421 418 -824 914 -1083 364 -190 749
-300 1239 -352 90 -9 624 -6 700 5 215 30 277 39 360 56 776 158 1387 556
1641 1068 132 267 155 576 65 853 -208 636 -973 1135 -1946 1267 -41 6 -95 13
-120 17 -71 9 -607 12 -690 4z"/>
</g>
</svg>
